<svg xmlns:inkscape="http://www.inkscape.org/namespaces/inkscape" xmlns:sodipodi="http://sodipodi.sourceforge.net/DTD/sodipodi-0.dtd" xmlns="http://www.w3.org/2000/svg" xmlns:svg="http://www.w3.org/2000/svg" version="1.1" id="svg2" sodipodi:docname="AK-Logo-ohne-Claim-4c.eps" viewBox="31.54 31.54 216.95 31.54">
  <defs id="defs6"/>
  <sodipodi:namedview id="namedview4" pagecolor="#ffffff" bordercolor="#000000" borderopacity="0.25" inkscape:showpageshadow="2" inkscape:pageopacity="0.0" inkscape:pagecheckerboard="0" inkscape:deskcolor="#d1d1d1"/>
  <g id="g8" inkscape:groupmode="layer" inkscape:label="ink_ext_XXXXXX" transform="matrix(1.3333333,0,0,-1.3333333,0,94.626667)">
    <g id="g10" transform="scale(0.1)">
      <path d="m 567.547,352.328 c -2.727,1.27 -8.328,2.363 -13.945,2.363 -17.207,0 -23,-16.113 -23,-35.664 0,-15.039 3.625,-29.355 18.839,-29.355 11.211,0 18.106,7.988 18.106,15.762 z m 20.996,-55.586 c 0,-3.984 1.094,-5.058 4.531,-5.254 l 5.801,-0.351 v -14.489 h -28.801 v 10.485 l -0.535,0.195 c -5.605,-8.144 -14.855,-13.023 -24.812,-13.023 -25.532,0 -36.223,18.101 -36.223,43.98 0,31.875 15.215,52.149 47.812,52.149 5.977,0 19.2,-1.446 32.227,-6.329 v -67.363" style="fill:#4a8bd1;fill-opacity:1;fill-rule:nonzero;stroke:none" id="path12"/>
      <path d="m 621.082,347.016 c 0,3.964 -1.074,5.254 -4.531,5.429 l -7.598,0.528 v 14.668 h 30.606 v -13.575 c 4.16,9.063 13.757,16.289 25.711,16.289 5.968,0 11.398,-1.093 17.382,-3.984 v -26.973 l -16.843,-1.269 v 8.32 c 0,2.188 -0.352,3.809 -1.805,4.531 -1.633,0.723 -2.902,0.899 -4.887,0.899 -9.781,0 -16.492,-7.774 -16.492,-18.281 v -42.012 l 15.762,-0.723 V 276.57 h -48.535 v 13.746 l 5.976,0.547 c 3.445,0.371 5.254,1.465 5.254,5.977 v 50.176" style="fill:#4a8bd1;fill-opacity:1;fill-rule:nonzero;stroke:none" id="path14"/>
      <path d="m 692.598,276.57 v 13.746 l 46.543,61.211 h -22.825 c -5.429,0 -5.781,-2.343 -5.781,-6.152 v -6.348 l -17.031,1.289 v 27.325 h 72.07 v -12.305 l -47.082,-62.481 h 25.715 c 4.348,0 5.254,2.54 5.254,6.153 v 7.617 l 17.019,-1.27 V 276.57 h -73.882" style="fill:#4a8bd1;fill-opacity:1;fill-rule:nonzero;stroke:none" id="path16"/>
      <path d="m 808.367,386.938 v -19.219 h 24.082 l -1.816,-15.215 h -22.266 v -47.617 c 0,-11.035 4.336,-14.297 11.758,-14.297 4.895,0 9.414,1.992 12.324,3.789 l 5.418,-13.945 c -5.418,-3.786 -14.48,-6.325 -22.984,-6.325 -28.254,0 -28.059,17.379 -28.059,30.055 v 48.34 h -12.871 l 1.817,13.223 c 12.675,1.093 17.011,10.878 20.82,21.211 h 11.777" style="fill:#4a8bd1;fill-opacity:1;fill-rule:nonzero;stroke:none" id="path18"/>
      <path d="m 855.809,385.043 c 0,3.965 -1.094,5.059 -4.532,5.234 l -6.328,0.371 v 15.02 h 32.227 V 327.25 c 12.859,1.289 23.73,8.164 27.519,19.941 1.453,4.336 -0.351,5.957 -2.89,5.957 l -6.875,0.372 v 14.121 h 37.48 v -14.668 l -8.699,-0.352 c -1.633,-12.5 -6.516,-21.738 -15.93,-29.16 l 17.754,-31.875 11.035,-0.527 V 276.57 H 910.137 L 889.5,314.242 c -3.809,-1.094 -8.145,-2.012 -12.324,-2.539 v -20.117 h 0.176 l 10.332,-0.527 V 276.57 H 844.59 v 13.746 l 5.965,0.547 c 3.449,0.371 5.254,1.465 5.254,5.977 v 88.203" style="fill:#eb8111;fill-opacity:1;fill-rule:nonzero;stroke:none" id="path20"/>
      <path d="m 1004.25,321.645 c 0,20.293 -4.906,32.773 -19.398,32.773 -14.297,0 -20.098,-12.305 -20.098,-29.688 0,-16.835 2.363,-34.96 19.746,-34.96 14.121,0 19.75,13.046 19.75,31.875 z m -18.305,48.71 c 13.399,0 40.385,-4.16 40.385,-45.82 0,-34.765 -19.37,-50.68 -43.283,-50.68 -24.262,0 -40.188,15.583 -40.188,48.356 0,37.637 24.434,48.144 43.086,48.144" style="fill:#eb8111;fill-opacity:1;fill-rule:nonzero;stroke:none" id="path22"/>
      <path d="m 1036.92,367.641 h 30.61 v -11.778 c 6.35,9.063 17.39,14.492 29.33,14.492 18.12,0 28.8,-10.136 28.8,-31.503 v -47.266 l 10.32,-0.527 V 276.57 h -43.09 v 13.746 l 5.98,0.547 c 3.43,0.371 5.24,1.465 5.24,5.977 v 37.305 c 0,11.953 -2.54,19.57 -14.84,19.57 -11.96,0 -18.66,-8.887 -18.66,-18.301 v -43.828 l 10.33,-0.527 V 276.57 h -43.1 v 13.746 l 5.98,0.547 c 3.43,0.371 5.25,1.465 5.25,5.977 v 50.176 c 0,3.964 -1.27,5.429 -4.53,5.605 l -7.62,0.527 v 14.493" style="fill:#eb8111;fill-opacity:1;fill-rule:nonzero;stroke:none" id="path24"/>
      <path d="m 1183.33,355.492 c -7.79,0 -13.59,-3.633 -13.59,-10.859 0,-8.34 8.71,-10.86 17.21,-13.223 14.11,-3.965 29.7,-8.515 29.7,-28.242 0,-18.828 -15.59,-28.957 -34.95,-28.957 -11.41,0 -25.72,1.812 -33.31,5.598 v 25.175 l 16.29,1.25 v -8.671 c 0,-3.438 0.89,-4.903 4.16,-6.172 3.44,-1.27 7.61,-1.797 11.95,-1.797 9.06,0 14.32,3.437 14.32,11.035 0,8.711 -7.97,10.332 -17.76,12.871 -13.4,3.438 -28.06,7.949 -28.06,28.047 0,18.848 15.93,28.789 34.95,28.789 12.31,0 22.99,-3.789 30.06,-7.227 v -21.738 l -16.3,-1.269 v 7.597 c 0,3.457 -0.91,4.903 -4.16,6.172 -3.46,1.27 -6.16,1.621 -10.51,1.621" style="fill:#eb8111;fill-opacity:1;fill-rule:nonzero;stroke:none" id="path26"/>
      <path d="m 1321.67,276.648 h -29.34 v 11.774 c -6.33,-9.063 -17.36,-14.117 -29.33,-14.117 -18.11,0 -28.07,9.937 -28.07,31.324 v 41.797 c 0,3.828 -1.45,4.902 -4.51,5.078 l -5.82,0.371 v 14.844 h 31.88 v -57.403 c 0,-11.035 1.81,-19.375 13.41,-19.375 12.67,0 19.37,8.516 19.37,17.93 v 38.203 c 0,3.985 -1.08,5.254 -4.53,5.43 l -5.8,0.371 v 14.844 h 31.88 v -70.977 c 0,-3.984 1.09,-4.902 4.53,-5.254 l 6.33,-0.547 v -14.293" style="fill:#eb8111;fill-opacity:1;fill-rule:nonzero;stroke:none" id="path28"/>
      <path d="m 1364.87,291.605 10.32,-0.546 V 276.57 h -43.09 v 13.746 l 5.97,0.547 c 3.27,0.371 5.25,1.465 5.25,5.801 v 89.277 c 0,3.262 -1.81,4.161 -4.52,4.336 l -6.35,0.371 v 15.02 h 32.42 V 291.605" style="fill:#eb8111;fill-opacity:1;fill-rule:nonzero;stroke:none" id="path30"/>
      <path d="m 1414.32,386.84 v -19.219 h 24.09 l -1.82,-15.195 h -22.27 v -47.617 c 0,-11.055 4.35,-14.317 11.76,-14.317 4.9,0 9.43,1.992 12.33,3.789 l 5.43,-13.926 c -5.43,-3.804 -14.5,-6.343 -23.01,-6.343 -28.24,0 -28.05,17.379 -28.05,30.054 v 48.36 h -12.87 l 1.81,13.222 c 12.68,1.094 17.03,10.86 20.83,21.192 h 11.77" style="fill:#eb8111;fill-opacity:1;fill-rule:nonzero;stroke:none" id="path32"/>
      <path d="m 1510.65,352.328 c -2.72,1.27 -8.34,2.363 -13.94,2.363 -17.21,0 -23,-16.113 -23,-35.664 0,-15.039 3.62,-29.355 18.84,-29.355 11.22,0 18.1,7.988 18.1,15.762 z m 21.01,-55.586 c 0,-3.984 1.07,-5.058 4.52,-5.254 l 5.79,-0.351 v -14.489 h -28.79 v 10.485 l -0.54,0.195 c -5.6,-8.144 -14.84,-13.023 -24.82,-13.023 -25.51,0 -36.2,18.101 -36.2,43.98 0,31.875 15.2,52.149 47.8,52.149 5.97,0 19.2,-1.446 32.24,-6.329 v -67.363" style="fill:#eb8111;fill-opacity:1;fill-rule:nonzero;stroke:none" id="path34"/>
      <path d="m 1580.79,386.84 v -19.219 h 24.06 l -1.8,-15.195 h -22.26 v -47.617 c 0,-11.055 4.33,-14.317 11.76,-14.317 4.89,0 9.41,1.992 12.3,3.789 l 5.43,-13.926 c -5.43,-3.804 -14.47,-6.343 -22.99,-6.343 -28.24,0 -28.06,17.379 -28.06,30.054 v 48.36 h -12.86 l 1.82,13.222 c 12.67,1.094 17.01,10.86 20.82,21.192 h 11.78" style="fill:#eb8111;fill-opacity:1;fill-rule:nonzero;stroke:none" id="path36"/>
      <path d="m 1637.14,406.469 c 7.96,0 13.77,-5.957 13.77,-13.574 0,-7.618 -5.81,-13.223 -13.95,-13.223 -8.32,0 -13.75,5.605 -13.75,13.223 0,7.617 5.43,13.574 13.93,13.574 z m 12.67,-114.785 10.33,-0.547 v -14.489 h -43.08 v 13.766 l 5.97,0.527 c 3.25,0.372 5.24,1.465 5.24,5.801 v 50.332 c 0,3.985 -1.08,5.254 -4.53,5.254 l -6.33,0.352 v 15.039 h 32.4 v -76.035" style="fill:#eb8111;fill-opacity:1;fill-rule:nonzero;stroke:none" id="path38"/>
      <path d="m 1731.71,321.625 c 0,20.293 -4.9,32.773 -19.39,32.773 -14.29,0 -20.09,-12.285 -20.09,-29.668 0,-16.855 2.37,-34.96 19.73,-34.96 14.14,0 19.75,13.046 19.75,31.855 z m -18.3,48.711 c 13.4,0 40.39,-4.16 40.39,-45.82 0,-34.746 -19.38,-50.68 -43.28,-50.68 -24.27,0 -40.2,15.582 -40.2,48.355 0,37.657 24.43,48.145 43.09,48.145" style="fill:#eb8111;fill-opacity:1;fill-rule:nonzero;stroke:none" id="path40"/>
      <path d="m 1764.6,367.719 h 30.6 v -11.758 c 6.34,9.043 17.39,14.473 29.34,14.473 18.12,0 28.81,-10.137 28.81,-31.504 v -47.246 l 10.31,-0.547 v -14.489 h -43.11 v 13.766 l 5.99,0.527 c 3.43,0.372 5.26,1.465 5.26,5.977 v 37.305 c 0,11.953 -2.53,19.55 -14.86,19.55 -11.95,0 -18.65,-8.847 -18.65,-18.281 v -43.808 l 10.31,-0.547 v -14.489 h -43.08 v 13.766 l 5.97,0.527 c 3.42,0.372 5.26,1.465 5.26,5.977 v 50.156 c 0,3.985 -1.27,5.43 -4.54,5.606 l -7.61,0.566 v 14.473" style="fill:#eb8111;fill-opacity:1;fill-rule:nonzero;stroke:none" id="path42"/>
      <path d="m 473.074,354.887 c 0,-23.379 -6.789,-45.176 -18.484,-63.535 -3.363,-5.274 -7.129,-10.235 -11.235,-14.86 -21.66,-24.472 -53.296,-39.883 -88.535,-39.883 -65.32,0 -118.269,52.965 -118.269,118.278 0,65.332 52.949,118.261 118.269,118.261 65.317,0 118.254,-52.929 118.254,-118.261" style="fill:#eb8111;fill-opacity:1;fill-rule:evenodd;stroke:none" id="path44"/>
      <path d="m 332.742,305.141 c 0,-7.754 -6.847,-15.684 -18.039,-15.684 -15.152,0 -18.769,14.258 -18.769,29.238 0,19.493 5.785,35.547 22.914,35.547 5.593,0 11.187,-1.074 13.894,-2.344 z m 110.93,-13.243 -18.188,32.676 c 9.653,7.617 14.668,17.09 16.329,29.922 l 8.91,0.371 v 15.02 h -38.442 v -14.473 l 7.055,-0.371 c 2.613,0 4.48,-1.66 2.984,-6.113 -3.886,-12.09 -15.054,-19.16 -28.23,-20.45 v 80.43 h -33.059 v -15.43 l 6.465,-0.371 c 3.559,-0.175 4.668,-1.289 4.668,-5.371 V 297.27 c 0,-4.629 -1.855,-5.743 -5.379,-6.133 l -2.812,-0.254 h -0.047 l -5.703,0.371 c -3.45,0.195 -4.535,1.25 -4.535,5.215 v 67.168 c -12.989,4.883 -26.168,6.308 -32.137,6.308 -32.473,0 -47.649,-20.234 -47.649,-51.992 0,-25.801 10.664,-43.844 36.118,-43.844 9.918,0 19.121,4.86 24.707,12.985 l 0.562,-0.176 v -10.445 h 28.684 v 0.019 h 40.886 v 14.84 l -10.586,0.566 h -0.183 v 20.586 c 4.265,0.586 8.719,1.524 12.629,2.637 l 21.172,-38.629 h 15.464 c 4.106,4.625 7.872,9.586 11.235,14.86 l -10.918,0.546" style="fill:#ffffff;fill-opacity:1;fill-rule:nonzero;stroke:none" id="path46"/>
    </g>
  </g>
</svg>